<svg xmlns="http://www.w3.org/2000/svg" xmlns:xlink="http://www.w3.org/1999/xlink" contentStyleType="text/css" height="888px" preserveAspectRatio="none" style="width:1049px;height:888px;background:#FFFFFF;" version="1.1" viewBox="0 0 1049 888" width="1049px" zoomAndPan="magnify"><defs/><g><text fill="#000000" font-family="sans-serif" font-size="14" font-weight="bold" lengthAdjust="spacing" textLength="89" x="473" y="22.9951">Map details</text><!--cluster mazegame--><g id="cluster_mazegame"><path d="M8.5,43.2969 L94.5,43.2969 A3.75,3.75 0 0 1 97,45.7969 L104,65.5938 L1039.5,65.5938 A2.5,2.5 0 0 1 1042,68.0938 L1042,879.1069 A2.5,2.5 0 0 1 1039.5,881.6069 L8.5,881.6069 A2.5,2.5 0 0 1 6,879.1069 L6,45.7969 A2.5,2.5 0 0 1 8.5,43.2969 " fill="none" style="stroke:#000000;stroke-width:1.5;"/><line style="stroke:#000000;stroke-width:1.5;" x1="6" x2="104" y1="65.5938" y2="65.5938"/><text fill="#000000" font-family="sans-serif" font-size="14" font-weight="bold" lengthAdjust="spacing" textLength="85" x="10" y="58.292">mazegame</text></g><!--cluster map--><g id="cluster_map"><path d="M32.5,86.2969 L66.5,86.2969 A3.75,3.75 0 0 1 69,88.7969 L76,108.5938 L1015.5,108.5938 A2.5,2.5 0 0 1 1018,111.0938 L1018,855.1069 A2.5,2.5 0 0 1 1015.5,857.6069 L32.5,857.6069 A2.5,2.5 0 0 1 30,855.1069 L30,88.7969 A2.5,2.5 0 0 1 32.5,86.2969 " fill="none" style="stroke:#000000;stroke-width:1.5;"/><line style="stroke:#000000;stroke-width:1.5;" x1="30" x2="76" y1="108.5938" y2="108.5938"/><text fill="#000000" font-family="sans-serif" font-size="14" font-weight="bold" lengthAdjust="spacing" textLength="33" x="34" y="101.292">map</text></g><!--class Maps--><g id="elem_Maps"><rect codeLine="4" fill="#F1F1F1" height="129.4844" id="Maps" rx="2.5" ry="2.5" style="stroke:#181818;stroke-width:0.5;" width="228" x="410" y="121.2969"/><ellipse cx="501.25" cy="137.2969" fill="#ADD1B2" rx="11" ry="11" style="stroke:#181818;stroke-width:1.0;"/><path d="M504.2188,142.9375 Q503.6406,143.2344 503,143.375 Q502.3594,143.5313 501.6563,143.5313 Q499.1563,143.5313 497.8281,141.8906 Q496.5156,140.2344 496.5156,137.1094 Q496.5156,133.9844 497.8281,132.3281 Q499.1563,130.6719 501.6563,130.6719 Q502.3594,130.6719 503,130.8281 Q503.6563,130.9844 504.2188,131.2813 L504.2188,134 Q503.5938,133.4219 503,133.1563 Q502.4063,132.875 501.7813,132.875 Q500.4375,132.875 499.75,133.9531 Q499.0625,135.0156 499.0625,137.1094 Q499.0625,139.2031 499.75,140.2813 Q500.4375,141.3438 501.7813,141.3438 Q502.4063,141.3438 503,141.0781 Q503.5938,140.7969 504.2188,140.2188 L504.2188,142.9375 Z " fill="#000000"/><text fill="#000000" font-family="sans-serif" font-size="14" lengthAdjust="spacing" textLength="37" x="521.75" y="142.1436">Maps</text><line style="stroke:#181818;stroke-width:0.5;" x1="411" x2="637" y1="153.2969" y2="153.2969"/><rect fill="none" height="6" style="stroke:#C82930;stroke-width:1.0;" width="6" x="418" y="163.9453"/><text fill="#000000" font-family="sans-serif" font-size="14" lengthAdjust="spacing" textLength="150" x="430" y="170.292">List&lt;MapData&gt; maps</text><line style="stroke:#181818;stroke-width:0.5;" x1="411" x2="637" y1="177.5938" y2="177.5938"/><ellipse cx="421" cy="191.2422" fill="#84BE84" rx="3" ry="3" style="stroke:#038048;stroke-width:1.0;"/><text fill="#000000" font-family="sans-serif" font-size="14" lengthAdjust="spacing" textLength="141" x="430" y="194.5889">Maps(String filePath)</text><ellipse cx="421" cy="207.5391" fill="#84BE84" rx="3" ry="3" style="stroke:#038048;stroke-width:1.0;"/><text fill="#000000" font-family="sans-serif" font-size="14" lengthAdjust="spacing" textLength="160" x="430" y="210.8857">MapData getMap(int id)</text><rect fill="#F24D5C" height="6" style="stroke:#C82930;stroke-width:1.0;" width="6" x="418" y="220.8359"/><text fill="#000000" font-family="sans-serif" font-size="14" lengthAdjust="spacing" textLength="202" x="430" y="227.1826">void loadMaps(String filePath)</text><ellipse cx="421" cy="240.1328" fill="#84BE84" rx="3" ry="3" style="stroke:#038048;stroke-width:1.0;"/><text fill="#000000" font-family="sans-serif" font-size="14" lengthAdjust="spacing" textLength="108" x="430" y="243.4795">String toString()</text></g><!--class MapData--><g id="elem_MapData"><rect codeLine="12" fill="#F1F1F1" height="162.0781" id="MapData" rx="2.5" ry="2.5" style="stroke:#181818;stroke-width:0.5;" width="529" x="259.5" y="310.7769"/><ellipse cx="489.25" cy="326.7769" fill="#ADD1B2" rx="11" ry="11" style="stroke:#181818;stroke-width:1.0;"/><path d="M492.2188,332.4175 Q491.6406,332.7144 491,332.855 Q490.3594,333.0112 489.6563,333.0112 Q487.1563,333.0112 485.8281,331.3706 Q484.5156,329.7144 484.5156,326.5894 Q484.5156,323.4644 485.8281,321.8081 Q487.1563,320.1519 489.6563,320.1519 Q490.3594,320.1519 491,320.3081 Q491.6563,320.4644 492.2188,320.7612 L492.2188,323.48 Q491.5938,322.9019 491,322.6362 Q490.4063,322.355 489.7813,322.355 Q488.4375,322.355 487.75,323.4331 Q487.0625,324.4956 487.0625,326.5894 Q487.0625,328.6831 487.75,329.7612 Q488.4375,330.8237 489.7813,330.8237 Q490.4063,330.8237 491,330.5581 Q491.5938,330.2769 492.2188,329.6987 L492.2188,332.4175 Z " fill="#000000"/><text fill="#000000" font-family="sans-serif" font-size="14" lengthAdjust="spacing" textLength="61" x="509.75" y="331.6236">MapData</text><line style="stroke:#181818;stroke-width:0.5;" x1="260.5" x2="787.5" y1="342.7769" y2="342.7769"/><ellipse cx="270.5" cy="356.4253" fill="none" rx="3" ry="3" style="stroke:#038048;stroke-width:1.0;"/><text fill="#000000" font-family="sans-serif" font-size="14" lengthAdjust="spacing" textLength="33" x="279.5" y="359.772">int id</text><ellipse cx="270.5" cy="372.7222" fill="none" rx="3" ry="3" style="stroke:#038048;stroke-width:1.0;"/><text fill="#000000" font-family="sans-serif" font-size="14" lengthAdjust="spacing" textLength="83" x="279.5" y="376.0689">String name</text><ellipse cx="270.5" cy="389.0191" fill="none" rx="3" ry="3" style="stroke:#038048;stroke-width:1.0;"/><text fill="#000000" font-family="sans-serif" font-size="14" lengthAdjust="spacing" textLength="54" x="279.5" y="392.3657">int rows</text><ellipse cx="270.5" cy="405.3159" fill="none" rx="3" ry="3" style="stroke:#038048;stroke-width:1.0;"/><text fill="#000000" font-family="sans-serif" font-size="14" lengthAdjust="spacing" textLength="49" x="279.5" y="408.6626">int cols</text><ellipse cx="270.5" cy="421.6128" fill="none" rx="3" ry="3" style="stroke:#038048;stroke-width:1.0;"/><text fill="#000000" font-family="sans-serif" font-size="14" lengthAdjust="spacing" textLength="181" x="279.5" y="424.9595">List&lt;List&lt;Block&gt;&gt; blocks</text><line style="stroke:#181818;stroke-width:0.5;" x1="260.5" x2="787.5" y1="432.2612" y2="432.2612"/><ellipse cx="270.5" cy="445.9097" fill="#84BE84" rx="3" ry="3" style="stroke:#038048;stroke-width:1.0;"/><text fill="#000000" font-family="sans-serif" font-size="14" lengthAdjust="spacing" textLength="503" x="279.5" y="449.2564">MapData(int id, String name, int rows, int cols, List&lt;List&lt;Block&gt;&gt; blocks)</text><ellipse cx="270.5" cy="462.2066" fill="#84BE84" rx="3" ry="3" style="stroke:#038048;stroke-width:1.0;"/><text fill="#000000" font-family="sans-serif" font-size="14" lengthAdjust="spacing" textLength="108" x="279.5" y="465.5532">String toString()</text></g><!--class Block--><g id="elem_Block"><rect codeLine="22" fill="#F1F1F1" height="308.75" id="Block" rx="2.5" ry="2.5" style="stroke:#181818;stroke-width:0.5;" width="955" x="46.5" y="532.8569"/><ellipse cx="500.75" cy="548.8569" fill="#ADD1B2" rx="11" ry="11" style="stroke:#181818;stroke-width:1.0;"/><path d="M503.7188,554.4975 Q503.1406,554.7944 502.5,554.935 Q501.8594,555.0913 501.1563,555.0913 Q498.6563,555.0913 497.3281,553.4506 Q496.0156,551.7944 496.0156,548.6694 Q496.0156,545.5444 497.3281,543.8881 Q498.6563,542.2319 501.1563,542.2319 Q501.8594,542.2319 502.5,542.3881 Q503.1563,542.5444 503.7188,542.8413 L503.7188,545.56 Q503.0938,544.9819 502.5,544.7163 Q501.9063,544.435 501.2813,544.435 Q499.9375,544.435 499.25,545.5131 Q498.5625,546.5756 498.5625,548.6694 Q498.5625,550.7631 499.25,551.8413 Q499.9375,552.9038 501.2813,552.9038 Q501.9063,552.9038 502.5,552.6381 Q503.0938,552.3569 503.7188,551.7788 L503.7188,554.4975 Z " fill="#000000"/><text fill="#000000" font-family="sans-serif" font-size="14" lengthAdjust="spacing" textLength="38" x="521.25" y="553.7036">Block</text><line style="stroke:#181818;stroke-width:0.5;" x1="47.5" x2="1000.5" y1="564.8569" y2="564.8569"/><ellipse cx="57.5" cy="578.5053" fill="none" rx="3" ry="3" style="stroke:#038048;stroke-width:1.0;"/><text fill="#000000" font-family="sans-serif" font-size="14" lengthAdjust="spacing" textLength="112" x="66.5" y="581.852">boolean wallTop</text><ellipse cx="57.5" cy="594.8022" fill="none" rx="3" ry="3" style="stroke:#038048;stroke-width:1.0;"/><text fill="#000000" font-family="sans-serif" font-size="14" lengthAdjust="spacing" textLength="121" x="66.5" y="598.1489">boolean wallRight</text><ellipse cx="57.5" cy="611.0991" fill="none" rx="3" ry="3" style="stroke:#038048;stroke-width:1.0;"/><text fill="#000000" font-family="sans-serif" font-size="14" lengthAdjust="spacing" textLength="136" x="66.5" y="614.4457">boolean wallBottom</text><ellipse cx="57.5" cy="627.3959" fill="none" rx="3" ry="3" style="stroke:#038048;stroke-width:1.0;"/><text fill="#000000" font-family="sans-serif" font-size="14" lengthAdjust="spacing" textLength="110" x="66.5" y="630.7426">boolean wallLeft</text><ellipse cx="57.5" cy="643.6928" fill="none" rx="3" ry="3" style="stroke:#038048;stroke-width:1.0;"/><text fill="#000000" font-family="sans-serif" font-size="14" lengthAdjust="spacing" textLength="91" x="66.5" y="647.0395">boolean start</text><ellipse cx="57.5" cy="659.9897" fill="none" rx="3" ry="3" style="stroke:#038048;stroke-width:1.0;"/><text fill="#000000" font-family="sans-serif" font-size="14" lengthAdjust="spacing" textLength="87" x="66.5" y="663.3364">boolean end</text><ellipse cx="57.5" cy="676.2866" fill="none" rx="3" ry="3" style="stroke:#038048;stroke-width:1.0;"/><text fill="#000000" font-family="sans-serif" font-size="14" lengthAdjust="spacing" textLength="118" x="66.5" y="679.6332">boolean monster</text><line style="stroke:#181818;stroke-width:0.5;" x1="47.5" x2="1000.5" y1="686.935" y2="686.935"/><ellipse cx="57.5" cy="700.5834" fill="#84BE84" rx="3" ry="3" style="stroke:#038048;stroke-width:1.0;"/><text fill="#000000" font-family="sans-serif" font-size="14" lengthAdjust="spacing" textLength="106" x="66.5" y="703.9301">static Block of()</text><ellipse cx="57.5" cy="716.8803" fill="#84BE84" rx="3" ry="3" style="stroke:#038048;stroke-width:1.0;"/><text fill="#000000" font-family="sans-serif" font-size="14" lengthAdjust="spacing" textLength="218" x="66.5" y="720.227">static Block of(boolean wallTop)</text><ellipse cx="57.5" cy="733.1772" fill="#84BE84" rx="3" ry="3" style="stroke:#038048;stroke-width:1.0;"/><text fill="#000000" font-family="sans-serif" font-size="14" lengthAdjust="spacing" textLength="347" x="66.5" y="736.5239">static Block of(boolean wallTop, boolean wallRight)</text><ellipse cx="57.5" cy="749.4741" fill="#84BE84" rx="3" ry="3" style="stroke:#038048;stroke-width:1.0;"/><text fill="#000000" font-family="sans-serif" font-size="14" lengthAdjust="spacing" textLength="491" x="66.5" y="752.8207">static Block of(boolean wallTop, boolean wallRight, boolean wallBottom)</text><ellipse cx="57.5" cy="765.7709" fill="#84BE84" rx="3" ry="3" style="stroke:#038048;stroke-width:1.0;"/><text fill="#000000" font-family="sans-serif" font-size="14" lengthAdjust="spacing" textLength="609" x="66.5" y="769.1176">static Block of(boolean wallTop, boolean wallRight, boolean wallBottom, boolean wallLeft)</text><ellipse cx="57.5" cy="782.0678" fill="#84BE84" rx="3" ry="3" style="stroke:#038048;stroke-width:1.0;"/><text fill="#000000" font-family="sans-serif" font-size="14" lengthAdjust="spacing" textLength="708" x="66.5" y="785.4145">static Block of(boolean wallTop, boolean wallRight, boolean wallBottom, boolean wallLeft, boolean start)</text><ellipse cx="57.5" cy="798.3647" fill="#84BE84" rx="3" ry="3" style="stroke:#038048;stroke-width:1.0;"/><text fill="#000000" font-family="sans-serif" font-size="14" lengthAdjust="spacing" textLength="803" x="66.5" y="801.7114">static Block of(boolean wallTop, boolean wallRight, boolean wallBottom, boolean wallLeft, boolean start, boolean end)</text><ellipse cx="57.5" cy="814.6616" fill="#84BE84" rx="3" ry="3" style="stroke:#038048;stroke-width:1.0;"/><text fill="#000000" font-family="sans-serif" font-size="14" lengthAdjust="spacing" textLength="929" x="66.5" y="818.0082">static Block of(boolean wallTop, boolean wallRight, boolean wallBottom, boolean wallLeft, boolean start, boolean end, boolean monster)</text><ellipse cx="57.5" cy="830.9584" fill="#84BE84" rx="3" ry="3" style="stroke:#038048;stroke-width:1.0;"/><text fill="#000000" font-family="sans-serif" font-size="14" lengthAdjust="spacing" textLength="108" x="66.5" y="834.3051">String toString()</text></g><!--link Maps to MapData--><g id="link_Maps_MapData"><path codeLine="41" d="M524,251.2369 C524,270.0169 524,284.7869 524,304.4469 " fill="none" id="Maps-to-MapData" style="stroke:#181818;stroke-width:1.0;"/><polygon fill="#181818" points="524,310.4469,528,301.4469,524,305.4469,520,301.4469,524,310.4469" style="stroke:#181818;stroke-width:1.0;"/></g><!--link MapData to Block--><g id="link_MapData_Block"><path codeLine="42" d="M524,472.9969 C524,491.5769 524,505.9569 524,526.5269 " fill="none" id="MapData-to-Block" style="stroke:#181818;stroke-width:1.0;"/><polygon fill="#181818" points="524,532.5269,528,523.5269,524,527.5269,520,523.5269,524,532.5269" style="stroke:#181818;stroke-width:1.0;"/></g><!--SRC=[nLJBReCm4Bpp5QkSG3NzWef3r6CgLMr_O0CEiMAy2AyQgL7-lM08Cg-sKQl61x1cTdUOjLbMh2KyOGcPP5JQ1a69wG5p2Qi2FsIEXRmli5p1AO1wfHgjRU9j1pGhXeso_52ZZyYOG1rlU_BEHOUlN2cJmqvf-OoyZuPyamUvv7eRAiEWiiYh_aug0qsOVLUfevZQJTXovs3uwKxivAMrYjCwfZO_2gleQ4TGIjg7N2lSOwqfFIG9R9ktdHhkd0fVJlGgeYyk5cjUwTqb3vnlYRH40qVK-etA1UP5vNjUuDR4JCK2kP6xkJpBMCtXqcGpQ476igmyfivdbNPsQ1T6Nt0ZXrU4YcaFVfSjPXhtznN5v0J-GqCC3_S6aiA_HhVM5-FR- -C_rOtME4ukG-82kg7LuCv7SFu4]--></g></svg>