<svg xmlns="http://www.w3.org/2000/svg" xmlns:xlink="http://www.w3.org/1999/xlink" contentStyleType="text/css" height="1110px" preserveAspectRatio="none" style="width:1936px;height:1110px;background:#FFFFFF;" version="1.1" viewBox="0 0 1936 1110" width="1936px" zoomAndPan="magnify"><defs/><g><text fill="#000000" font-family="sans-serif" font-size="14" font-weight="bold" lengthAdjust="spacing" textLength="84" x="919" y="22.9951">GUI details</text><!--cluster mazegame--><g id="cluster_mazegame"><path d="M8.5,43.2969 L94.5,43.2969 A3.75,3.75 0 0 1 97,45.7969 L104,65.5938 L1926.5,65.5938 A2.5,2.5 0 0 1 1929,68.0938 L1929,1101.3769 A2.5,2.5 0 0 1 1926.5,1103.8769 L8.5,1103.8769 A2.5,2.5 0 0 1 6,1101.3769 L6,45.7969 A2.5,2.5 0 0 1 8.5,43.2969 " fill="none" style="stroke:#000000;stroke-width:1.5;"/><line style="stroke:#000000;stroke-width:1.5;" x1="6" x2="104" y1="65.5938" y2="65.5938"/><text fill="#000000" font-family="sans-serif" font-size="14" font-weight="bold" lengthAdjust="spacing" textLength="85" x="10" y="58.292">mazegame</text></g><!--cluster game--><g id="cluster_game"><path d="M32.5,86.2969 L76.5,86.2969 A3.75,3.75 0 0 1 79,88.7969 L86,108.5938 L1902.5,108.5938 A2.5,2.5 0 0 1 1905,111.0938 L1905,1077.3769 A2.5,2.5 0 0 1 1902.5,1079.8769 L32.5,1079.8769 A2.5,2.5 0 0 1 30,1077.3769 L30,88.7969 A2.5,2.5 0 0 1 32.5,86.2969 " fill="none" style="stroke:#000000;stroke-width:1.5;"/><line style="stroke:#000000;stroke-width:1.5;" x1="30" x2="86" y1="108.5938" y2="108.5938"/><text fill="#000000" font-family="sans-serif" font-size="14" font-weight="bold" lengthAdjust="spacing" textLength="43" x="34" y="101.292">game</text></g><!--cluster controller--><g id="cluster_controller"><path d="M56.5,129.2969 L134.5,129.2969 A3.75,3.75 0 0 1 137,131.7969 L144,151.5937 L1641.5,151.5937 A2.5,2.5 0 0 1 1644,154.0937 L1644,600.6269 A2.5,2.5 0 0 1 1641.5,603.1269 L56.5,603.1269 A2.5,2.5 0 0 1 54,600.6269 L54,131.7969 A2.5,2.5 0 0 1 56.5,129.2969 " fill="none" style="stroke:#000000;stroke-width:1.5;"/><line style="stroke:#000000;stroke-width:1.5;" x1="54" x2="144" y1="151.5937" y2="151.5937"/><text fill="#000000" font-family="sans-serif" font-size="14" font-weight="bold" lengthAdjust="spacing" textLength="77" x="58" y="144.292">controller</text></g><!--class GameResultManagerImpl--><g id="elem_GameResultManagerImpl"><rect codeLine="5" fill="#F1F1F1" height="113.1875" id="GameResultManagerImpl" rx="2.5" ry="2.5" style="stroke:#181818;stroke-width:0.5;" width="603" x="377.5" y="950.6869"/><ellipse cx="588.25" cy="966.6869" fill="#ADD1B2" rx="11" ry="11" style="stroke:#181818;stroke-width:1.0;"/><path d="M591.2188,972.3275 Q590.6406,972.6244 590,972.765 Q589.3594,972.9212 588.6563,972.9212 Q586.1563,972.9212 584.8281,971.2806 Q583.5156,969.6244 583.5156,966.4994 Q583.5156,963.3744 584.8281,961.7181 Q586.1563,960.0619 588.6563,960.0619 Q589.3594,960.0619 590,960.2181 Q590.6563,960.3744 591.2188,960.6712 L591.2188,963.39 Q590.5938,962.8119 590,962.5462 Q589.4063,962.265 588.7813,962.265 Q587.4375,962.265 586.75,963.3431 Q586.0625,964.4056 586.0625,966.4994 Q586.0625,968.5931 586.75,969.6712 Q587.4375,970.7337 588.7813,970.7337 Q589.4063,970.7337 590,970.4681 Q590.5938,970.1869 591.2188,969.6087 L591.2188,972.3275 Z " fill="#000000"/><text fill="#000000" font-family="sans-serif" font-size="14" lengthAdjust="spacing" textLength="173" x="608.75" y="971.5336">GameResultManagerImpl</text><line style="stroke:#181818;stroke-width:0.5;" x1="378.5" x2="979.5" y1="982.6869" y2="982.6869"/><rect fill="none" height="6" style="stroke:#C82930;stroke-width:1.0;" width="6" x="385.5" y="993.3353"/><text fill="#000000" font-family="sans-serif" font-size="14" lengthAdjust="spacing" textLength="253" x="397.5" y="999.682">List&lt;OnePlayerGameResult&gt; results</text><line style="stroke:#181818;stroke-width:0.5;" x1="378.5" x2="979.5" y1="1006.9837" y2="1006.9837"/><ellipse cx="388.5" cy="1020.6322" fill="#84BE84" rx="3" ry="3" style="stroke:#038048;stroke-width:1.0;"/><text fill="#000000" font-family="sans-serif" font-size="14" lengthAdjust="spacing" textLength="211" x="397.5" y="1023.9789">void save() throws IOException</text><ellipse cx="388.5" cy="1036.9291" fill="#84BE84" rx="3" ry="3" style="stroke:#038048;stroke-width:1.0;"/><text fill="#000000" font-family="sans-serif" font-size="14" lengthAdjust="spacing" textLength="577" x="397.5" y="1040.2757">List&lt;OnePlayerGameResult&gt; add(OnePlayerGameResult result) throws IOException</text><ellipse cx="388.5" cy="1053.2259" fill="#84BE84" rx="3" ry="3" style="stroke:#038048;stroke-width:1.0;"/><text fill="#000000" font-family="sans-serif" font-size="14" lengthAdjust="spacing" textLength="391" x="397.5" y="1056.5726">List&lt;OnePlayerGameResult&gt; getAll() throws IOException</text></g><!--class Main--><g id="elem_Main"><rect codeLine="12" fill="#F1F1F1" height="64.2969" id="Main" rx="2.5" ry="2.5" style="stroke:#181818;stroke-width:0.5;" width="226" x="1663" y="343.5669"/><ellipse cx="1755.75" cy="359.5669" fill="#ADD1B2" rx="11" ry="11" style="stroke:#181818;stroke-width:1.0;"/><path d="M1758.7188,365.2075 Q1758.1406,365.5044 1757.5,365.645 Q1756.8594,365.8013 1756.1563,365.8013 Q1753.6563,365.8013 1752.3281,364.1606 Q1751.0156,362.5044 1751.0156,359.3794 Q1751.0156,356.2544 1752.3281,354.5981 Q1753.6563,352.9419 1756.1563,352.9419 Q1756.8594,352.9419 1757.5,353.0981 Q1758.1563,353.2544 1758.7188,353.5513 L1758.7188,356.27 Q1758.0938,355.6919 1757.5,355.4263 Q1756.9063,355.145 1756.2813,355.145 Q1754.9375,355.145 1754.25,356.2231 Q1753.5625,357.2856 1753.5625,359.3794 Q1753.5625,361.4731 1754.25,362.5513 Q1754.9375,363.6138 1756.2813,363.6138 Q1756.9063,363.6138 1757.5,363.3481 Q1758.0938,363.0669 1758.7188,362.4888 L1758.7188,365.2075 Z " fill="#000000"/><text fill="#000000" font-family="sans-serif" font-size="14" lengthAdjust="spacing" textLength="32" x="1776.25" y="364.4136">Main</text><line style="stroke:#181818;stroke-width:0.5;" x1="1664" x2="1888" y1="375.5669" y2="375.5669"/><line style="stroke:#181818;stroke-width:0.5;" x1="1664" x2="1888" y1="383.5669" y2="383.5669"/><ellipse cx="1674" cy="397.2153" fill="#84BE84" rx="3" ry="3" style="stroke:#038048;stroke-width:1.0;"/><text fill="#000000" font-family="sans-serif" font-size="14" lengthAdjust="spacing" textLength="200" x="1683" y="400.562">static void main(String[] args)</text></g><!--class MainApplication--><g id="elem_MainApplication"><rect codeLine="16" fill="#F1F1F1" height="243.5625" id="MainApplication" rx="2.5" ry="2.5" style="stroke:#181818;stroke-width:0.5;" width="529" x="414.5" y="647.1269"/><ellipse cx="621.25" cy="663.1269" fill="#ADD1B2" rx="11" ry="11" style="stroke:#181818;stroke-width:1.0;"/><path d="M624.2188,668.7675 Q623.6406,669.0644 623,669.205 Q622.3594,669.3612 621.6563,669.3612 Q619.1563,669.3612 617.8281,667.7206 Q616.5156,666.0644 616.5156,662.9394 Q616.5156,659.8144 617.8281,658.1581 Q619.1563,656.5019 621.6563,656.5019 Q622.3594,656.5019 623,656.6581 Q623.6563,656.8144 624.2188,657.1112 L624.2188,659.83 Q623.5938,659.2519 623,658.9862 Q622.4063,658.705 621.7813,658.705 Q620.4375,658.705 619.75,659.7831 Q619.0625,660.8456 619.0625,662.9394 Q619.0625,665.0331 619.75,666.1112 Q620.4375,667.1737 621.7813,667.1737 Q622.4063,667.1737 623,666.9081 Q623.5938,666.6269 624.2188,666.0487 L624.2188,668.7675 Z " fill="#000000"/><text fill="#000000" font-family="sans-serif" font-size="14" lengthAdjust="spacing" textLength="107" x="641.75" y="667.9736">MainApplication</text><line style="stroke:#181818;stroke-width:0.5;" x1="415.5" x2="942.5" y1="679.1269" y2="679.1269"/><rect fill="none" height="6" style="stroke:#C82930;stroke-width:1.0;" width="6" x="422.5" y="689.7753"/><text fill="#000000" font-family="sans-serif" font-size="14" lengthAdjust="spacing" textLength="83" x="434.5" y="696.122">Stage stage</text><rect fill="none" height="6" style="stroke:#C82930;stroke-width:1.0;" width="6" x="422.5" y="706.0722"/><text fill="#000000" font-family="sans-serif" font-size="14" lengthAdjust="spacing" textLength="125" x="434.5" y="712.4189">String playerName</text><rect fill="none" height="6" style="stroke:#C82930;stroke-width:1.0;" width="6" x="422.5" y="722.3691"/><text fill="#000000" font-family="sans-serif" font-size="14" lengthAdjust="spacing" textLength="170" x="434.5" y="728.7157">ZonedDateTime created</text><line style="stroke:#181818;stroke-width:0.5;" x1="415.5" x2="942.5" y1="736.0175" y2="736.0175"/><ellipse cx="425.5" cy="749.6659" fill="#84BE84" rx="3" ry="3" style="stroke:#038048;stroke-width:1.0;"/><text fill="#000000" font-family="sans-serif" font-size="14" lengthAdjust="spacing" textLength="117" x="434.5" y="753.0126">MainApplication()</text><ellipse cx="425.5" cy="765.9628" fill="#84BE84" rx="3" ry="3" style="stroke:#038048;stroke-width:1.0;"/><text fill="#000000" font-family="sans-serif" font-size="14" lengthAdjust="spacing" textLength="503" x="434.5" y="769.3095">void saveResult(boolean solved, int numberOfMoves) throws IOException</text><ellipse cx="425.5" cy="782.2597" fill="#84BE84" rx="3" ry="3" style="stroke:#038048;stroke-width:1.0;"/><text fill="#000000" font-family="sans-serif" font-size="14" lengthAdjust="spacing" textLength="338" x="434.5" y="785.6064">void switchScene(String fxml) throws IOException</text><ellipse cx="425.5" cy="798.5566" fill="#84BE84" rx="3" ry="3" style="stroke:#038048;stroke-width:1.0;"/><text fill="#000000" font-family="sans-serif" font-size="14" lengthAdjust="spacing" textLength="471" x="434.5" y="801.9032">void switchScene(String fxml, String playerName) throws IOException</text><ellipse cx="425.5" cy="814.8534" fill="#84BE84" rx="3" ry="3" style="stroke:#038048;stroke-width:1.0;"/><text fill="#000000" font-family="sans-serif" font-size="14" lengthAdjust="spacing" textLength="279" x="434.5" y="818.2001">void start(Stage stage) throws Exception</text><ellipse cx="425.5" cy="831.1503" fill="#84BE84" rx="3" ry="3" style="stroke:#038048;stroke-width:1.0;"/><text fill="#000000" font-family="sans-serif" font-size="14" lengthAdjust="spacing" textLength="244" x="434.5" y="834.497">static MainApplication getInstance()</text><ellipse cx="425.5" cy="847.4472" fill="#84BE84" rx="3" ry="3" style="stroke:#038048;stroke-width:1.0;"/><text fill="#000000" font-family="sans-serif" font-size="14" lengthAdjust="spacing" textLength="311" x="434.5" y="850.7939">static GameResultManagerImpl getManager()</text><ellipse cx="425.5" cy="863.7441" fill="#84BE84" rx="3" ry="3" style="stroke:#038048;stroke-width:1.0;"/><text fill="#000000" font-family="sans-serif" font-size="14" lengthAdjust="spacing" textLength="158" x="434.5" y="867.0907">String getPlayerName()</text><ellipse cx="425.5" cy="880.0409" fill="#84BE84" rx="3" ry="3" style="stroke:#038048;stroke-width:1.0;"/><text fill="#000000" font-family="sans-serif" font-size="14" lengthAdjust="spacing" textLength="205" x="434.5" y="883.3876">ZonedDateTime getCreated()</text></g><!--class TableViewController--><g id="elem_TableViewController"><rect codeLine="35" fill="#F1F1F1" height="194.6719" id="TableViewController" rx="2.5" ry="2.5" style="stroke:#181818;stroke-width:0.5;" width="471" x="70.5" y="278.3769"/><ellipse cx="233.25" cy="294.3769" fill="#ADD1B2" rx="11" ry="11" style="stroke:#181818;stroke-width:1.0;"/><path d="M236.2188,300.0175 Q235.6406,300.3144 235,300.455 Q234.3594,300.6112 233.6563,300.6112 Q231.1563,300.6112 229.8281,298.9706 Q228.5156,297.3144 228.5156,294.1894 Q228.5156,291.0644 229.8281,289.4081 Q231.1563,287.7519 233.6563,287.7519 Q234.3594,287.7519 235,287.9081 Q235.6563,288.0644 236.2188,288.3612 L236.2188,291.08 Q235.5938,290.5019 235,290.2362 Q234.4063,289.955 233.7813,289.955 Q232.4375,289.955 231.75,291.0331 Q231.0625,292.0956 231.0625,294.1894 Q231.0625,296.2831 231.75,297.3612 Q232.4375,298.4237 233.7813,298.4237 Q234.4063,298.4237 235,298.1581 Q235.5938,297.8769 236.2188,297.2987 L236.2188,300.0175 Z " fill="#000000"/><text fill="#000000" font-family="sans-serif" font-size="14" lengthAdjust="spacing" textLength="137" x="253.75" y="299.2236">TableViewController</text><line style="stroke:#181818;stroke-width:0.5;" x1="71.5" x2="540.5" y1="310.3769" y2="310.3769"/><rect fill="none" height="6" style="stroke:#C82930;stroke-width:1.0;" width="6" x="78.5" y="321.0253"/><text fill="#000000" font-family="sans-serif" font-size="14" lengthAdjust="spacing" textLength="276" x="90.5" y="327.372">static int NUMBER_OF_ROWS_TO_SHOW</text><rect fill="none" height="6" style="stroke:#C82930;stroke-width:1.0;" width="6" x="78.5" y="337.3222"/><text fill="#000000" font-family="sans-serif" font-size="14" lengthAdjust="spacing" textLength="319" x="90.5" y="343.6689">TableView&lt;OnePlayerGameResult&gt; tableView</text><rect fill="none" height="6" style="stroke:#C82930;stroke-width:1.0;" width="6" x="78.5" y="353.6191"/><text fill="#000000" font-family="sans-serif" font-size="14" lengthAdjust="spacing" textLength="403" x="90.5" y="359.9657">TableColumn&lt;OnePlayerGameResult, String&gt; playerName</text><rect fill="none" height="6" style="stroke:#C82930;stroke-width:1.0;" width="6" x="78.5" y="369.9159"/><text fill="#000000" font-family="sans-serif" font-size="14" lengthAdjust="spacing" textLength="445" x="90.5" y="376.2626">TableColumn&lt;OnePlayerGameResult, Integer&gt; numberOfMoves</text><rect fill="none" height="6" style="stroke:#C82930;stroke-width:1.0;" width="6" x="78.5" y="386.2128"/><text fill="#000000" font-family="sans-serif" font-size="14" lengthAdjust="spacing" textLength="384" x="90.5" y="392.5595">TableColumn&lt;OnePlayerGameResult, Boolean&gt; solved</text><rect fill="none" height="6" style="stroke:#C82930;stroke-width:1.0;" width="6" x="78.5" y="402.5097"/><text fill="#000000" font-family="sans-serif" font-size="14" lengthAdjust="spacing" textLength="379" x="90.5" y="408.8564">TableColumn&lt;OnePlayerGameResult, String&gt; duration</text><rect fill="none" height="6" style="stroke:#C82930;stroke-width:1.0;" width="6" x="78.5" y="418.8066"/><text fill="#000000" font-family="sans-serif" font-size="14" lengthAdjust="spacing" textLength="375" x="90.5" y="425.1532">TableColumn&lt;OnePlayerGameResult, String&gt; created</text><ellipse cx="81.5" cy="438.1034" fill="none" rx="3" ry="3" style="stroke:#038048;stroke-width:1.0;"/><text fill="#000000" font-family="sans-serif" font-size="14" lengthAdjust="spacing" textLength="171" x="90.5" y="441.4501">MainApplication mainApp</text><line style="stroke:#181818;stroke-width:0.5;" x1="71.5" x2="540.5" y1="448.7519" y2="448.7519"/><ellipse cx="81.5" cy="462.4003" fill="#84BE84" rx="3" ry="3" style="stroke:#038048;stroke-width:1.0;"/><text fill="#000000" font-family="sans-serif" font-size="14" lengthAdjust="spacing" textLength="233" x="90.5" y="465.747">void initialize() throws IOException</text></g><!--class StartController--><g id="elem_StartController"><rect codeLine="47" fill="#F1F1F1" height="113.1875" id="StartController" rx="2.5" ry="2.5" style="stroke:#181818;stroke-width:0.5;" width="205" x="576.5" y="319.1169"/><ellipse cx="625.25" cy="335.1169" fill="#ADD1B2" rx="11" ry="11" style="stroke:#181818;stroke-width:1.0;"/><path d="M628.2188,340.7575 Q627.6406,341.0544 627,341.195 Q626.3594,341.3512 625.6563,341.3512 Q623.1563,341.3512 621.8281,339.7106 Q620.5156,338.0544 620.5156,334.9294 Q620.5156,331.8044 621.8281,330.1481 Q623.1563,328.4919 625.6563,328.4919 Q626.3594,328.4919 627,328.6481 Q627.6563,328.8044 628.2188,329.1012 L628.2188,331.82 Q627.5938,331.2419 627,330.9762 Q626.4063,330.695 625.7813,330.695 Q624.4375,330.695 623.75,331.7731 Q623.0625,332.8356 623.0625,334.9294 Q623.0625,337.0231 623.75,338.1012 Q624.4375,339.1637 625.7813,339.1637 Q626.4063,339.1637 627,338.8981 Q627.5938,338.6169 628.2188,338.0387 L628.2188,340.7575 Z " fill="#000000"/><text fill="#000000" font-family="sans-serif" font-size="14" lengthAdjust="spacing" textLength="99" x="645.75" y="339.9636">StartController</text><line style="stroke:#181818;stroke-width:0.5;" x1="577.5" x2="780.5" y1="351.1169" y2="351.1169"/><rect fill="none" height="6" style="stroke:#C82930;stroke-width:1.0;" width="6" x="584.5" y="361.7653"/><text fill="#000000" font-family="sans-serif" font-size="14" lengthAdjust="spacing" textLength="179" x="596.5" y="368.112">TextField playerNameField</text><rect fill="none" height="6" style="stroke:#C82930;stroke-width:1.0;" width="6" x="584.5" y="378.0622"/><text fill="#000000" font-family="sans-serif" font-size="14" lengthAdjust="spacing" textLength="170" x="596.5" y="384.4089">Button startGameButton</text><ellipse cx="587.5" cy="397.3591" fill="none" rx="3" ry="3" style="stroke:#038048;stroke-width:1.0;"/><text fill="#000000" font-family="sans-serif" font-size="14" lengthAdjust="spacing" textLength="171" x="596.5" y="400.7057">MainApplication mainApp</text><line style="stroke:#181818;stroke-width:0.5;" x1="577.5" x2="780.5" y1="408.0075" y2="408.0075"/><ellipse cx="587.5" cy="421.6559" fill="#84BE84" rx="3" ry="3" style="stroke:#038048;stroke-width:1.0;"/><text fill="#000000" font-family="sans-serif" font-size="14" lengthAdjust="spacing" textLength="96" x="596.5" y="425.0026">void initialize()</text></g><!--class GameController--><g id="elem_GameController"><rect codeLine="54" fill="#F1F1F1" height="422.8281" id="GameController" rx="2.5" ry="2.5" style="stroke:#181818;stroke-width:0.5;" width="811" x="816.5" y="164.2969"/><ellipse cx="1163.75" cy="180.2969" fill="#ADD1B2" rx="11" ry="11" style="stroke:#181818;stroke-width:1.0;"/><path d="M1166.7188,185.9375 Q1166.1406,186.2344 1165.5,186.375 Q1164.8594,186.5312 1164.1563,186.5312 Q1161.6563,186.5312 1160.3281,184.8906 Q1159.0156,183.2344 1159.0156,180.1094 Q1159.0156,176.9844 1160.3281,175.3281 Q1161.6563,173.6719 1164.1563,173.6719 Q1164.8594,173.6719 1165.5,173.8281 Q1166.1563,173.9844 1166.7188,174.2812 L1166.7188,177 Q1166.0938,176.4219 1165.5,176.1562 Q1164.9063,175.875 1164.2813,175.875 Q1162.9375,175.875 1162.25,176.9531 Q1161.5625,178.0156 1161.5625,180.1094 Q1161.5625,182.2031 1162.25,183.2812 Q1162.9375,184.3437 1164.2813,184.3437 Q1164.9063,184.3437 1165.5,184.0781 Q1166.0938,183.7969 1166.7188,183.2187 L1166.7188,185.9375 Z " fill="#000000"/><text fill="#000000" font-family="sans-serif" font-size="14" lengthAdjust="spacing" textLength="108" x="1184.25" y="185.1436">GameController</text><line style="stroke:#181818;stroke-width:0.5;" x1="817.5" x2="1626.5" y1="196.2969" y2="196.2969"/><rect fill="none" height="6" style="stroke:#C82930;stroke-width:1.0;" width="6" x="824.5" y="206.9453"/><text fill="#000000" font-family="sans-serif" font-size="14" lengthAdjust="spacing" textLength="310" x="836.5" y="213.292">static ImageStorage&lt;Integer&gt; imageStorage</text><rect fill="none" height="6" style="stroke:#C82930;stroke-width:1.0;" width="6" x="824.5" y="223.2422"/><text fill="#000000" font-family="sans-serif" font-size="14" lengthAdjust="spacing" textLength="225" x="836.5" y="229.5889">IntegerProperty numberOfMoves</text><rect fill="none" height="6" style="stroke:#C82930;stroke-width:1.0;" width="6" x="824.5" y="239.5391"/><text fill="#000000" font-family="sans-serif" font-size="14" lengthAdjust="spacing" textLength="116" x="836.5" y="245.8857">GameState state</text><rect fill="none" height="6" style="stroke:#C82930;stroke-width:1.0;" width="6" x="824.5" y="255.8359"/><text fill="#000000" font-family="sans-serif" font-size="14" lengthAdjust="spacing" textLength="93" x="836.5" y="262.1826">GridPane grid</text><rect fill="none" height="6" style="stroke:#C82930;stroke-width:1.0;" width="6" x="824.5" y="272.1328"/><text fill="#000000" font-family="sans-serif" font-size="14" lengthAdjust="spacing" textLength="212" x="836.5" y="278.4795">TextField numberOfMovesField</text><rect fill="none" height="6" style="stroke:#C82930;stroke-width:1.0;" width="6" x="824.5" y="288.4297"/><text fill="#000000" font-family="sans-serif" font-size="14" lengthAdjust="spacing" textLength="157" x="836.5" y="294.7764">Label playerNameLabel</text><ellipse cx="827.5" cy="307.7266" fill="none" rx="3" ry="3" style="stroke:#038048;stroke-width:1.0;"/><text fill="#000000" font-family="sans-serif" font-size="14" lengthAdjust="spacing" textLength="171" x="836.5" y="311.0732">MainApplication mainApp</text><line style="stroke:#181818;stroke-width:0.5;" x1="817.5" x2="1626.5" y1="318.375" y2="318.375"/><ellipse cx="827.5" cy="332.0234" fill="#84BE84" rx="3" ry="3" style="stroke:#038048;stroke-width:1.0;"/><text fill="#000000" font-family="sans-serif" font-size="14" lengthAdjust="spacing" textLength="284" x="836.5" y="335.3701">void handleKeyPress(KeyEvent keyEvent)</text><ellipse cx="827.5" cy="348.3203" fill="#84BE84" rx="3" ry="3" style="stroke:#038048;stroke-width:1.0;"/><text fill="#000000" font-family="sans-serif" font-size="14" lengthAdjust="spacing" textLength="297" x="836.5" y="351.667">void handleMouseClick(MouseEvent event)</text><ellipse cx="827.5" cy="364.6172" fill="#84BE84" rx="3" ry="3" style="stroke:#038048;stroke-width:1.0;"/><text fill="#000000" font-family="sans-serif" font-size="14" lengthAdjust="spacing" textLength="96" x="836.5" y="367.9639">void initialize()</text><rect fill="#F24D5C" height="6" style="stroke:#C82930;stroke-width:1.0;" width="6" x="824.5" y="377.9141"/><text fill="#000000" font-family="sans-serif" font-size="14" lengthAdjust="spacing" textLength="187" x="836.5" y="384.2607">void bindNumberOfMoves()</text><rect fill="#F24D5C" height="6" style="stroke:#C82930;stroke-width:1.0;" width="6" x="824.5" y="394.2109"/><text fill="#000000" font-family="sans-serif" font-size="14" lengthAdjust="spacing" textLength="566" x="836.5" y="400.5576">BooleanBinding createBindingToCheckPieceIsOnPosition(int index, int row, int col)</text><rect fill="#F24D5C" height="6" style="stroke:#C82930;stroke-width:1.0;" width="6" x="824.5" y="410.5078"/><text fill="#000000" font-family="sans-serif" font-size="14" lengthAdjust="spacing" textLength="502" x="836.5" y="416.8545">ImageView createImageViewForPieceOnPosition(int index, int row, int col)</text><rect fill="#F24D5C" height="6" style="stroke:#C82930;stroke-width:1.0;" width="6" x="824.5" y="426.8047"/><text fill="#000000" font-family="sans-serif" font-size="14" lengthAdjust="spacing" textLength="122" x="836.5" y="433.1514">void createState()</text><rect fill="#F24D5C" height="6" style="stroke:#C82930;stroke-width:1.0;" width="6" x="824.5" y="443.1016"/><text fill="#000000" font-family="sans-serif" font-size="14" lengthAdjust="spacing" textLength="362" x="836.5" y="449.4482">StackPane createSquare(int row, int col, Block block)</text><rect fill="#F24D5C" height="6" style="stroke:#C82930;stroke-width:1.0;" width="6" x="824.5" y="459.3984"/><text fill="#000000" font-family="sans-serif" font-size="14" lengthAdjust="spacing" textLength="215" x="836.5" y="465.7451">void endGame(boolean solved)</text><rect fill="#F24D5C" height="6" style="stroke:#C82930;stroke-width:1.0;" width="6" x="824.5" y="475.6953"/><text fill="#000000" font-family="sans-serif" font-size="14" lengthAdjust="spacing" textLength="785" x="836.5" y="482.042">void handleSolved(ObservableValue&lt;? extends Boolean&gt; observableValue, Boolean oldValue, Boolean newValue)</text><rect fill="#F24D5C" height="6" style="stroke:#C82930;stroke-width:1.0;" width="6" x="824.5" y="491.9922"/><text fill="#000000" font-family="sans-serif" font-size="14" lengthAdjust="spacing" textLength="91" x="836.5" y="498.3389">void initMap()</text><rect fill="#F24D5C" height="6" style="stroke:#C82930;stroke-width:1.0;" width="6" x="824.5" y="508.2891"/><text fill="#000000" font-family="sans-serif" font-size="14" lengthAdjust="spacing" textLength="404" x="836.5" y="514.6357">Optional&lt;Direction&gt; getDirectionFromClick(int row, int col)</text><rect fill="#F24D5C" height="6" style="stroke:#C82930;stroke-width:1.0;" width="6" x="824.5" y="524.5859"/><text fill="#000000" font-family="sans-serif" font-size="14" lengthAdjust="spacing" textLength="286" x="836.5" y="530.9326">void makeMoveIfLegal(Direction direction)</text><rect fill="#F24D5C" height="6" style="stroke:#C82930;stroke-width:1.0;" width="6" x="824.5" y="540.8828"/><text fill="#000000" font-family="sans-serif" font-size="14" lengthAdjust="spacing" textLength="212" x="836.5" y="547.2295">void registerKeyEventHandler()</text><rect fill="#F24D5C" height="6" style="stroke:#C82930;stroke-width:1.0;" width="6" x="824.5" y="557.1797"/><text fill="#000000" font-family="sans-serif" font-size="14" lengthAdjust="spacing" textLength="128" x="836.5" y="563.5264">void restartGame()</text><rect fill="#F24D5C" height="6" style="stroke:#C82930;stroke-width:1.0;" width="6" x="824.5" y="573.4766"/><text fill="#000000" font-family="sans-serif" font-size="14" lengthAdjust="spacing" textLength="658" x="836.5" y="579.8232">void showAlert(Alert.AlertType alertType, String headerText, String contentText, boolean solved)</text></g><!--link MainApplication to GameResultManagerImpl--><g id="link_MainApplication_GameResultManagerImpl"><path codeLine="31" d="M679,890.8669 C679,911.6469 679,926.3269 679,944.3069 " fill="none" id="MainApplication-to-GameResultManagerImpl" style="stroke:#181818;stroke-width:1.0;"/><polygon fill="#181818" points="679,950.3069,683,941.3069,679,945.3069,675,941.3069,679,950.3069" style="stroke:#181818;stroke-width:1.0;"/></g><!--link TableViewController to MainApplication--><g id="link_TableViewController_MainApplication"><path codeLine="80" d="M398.2,473.4169 C448.14,525.7869 506.1894,586.6645 559.3394,642.4045 " fill="none" id="TableViewController-to-MainApplication" style="stroke:#181818;stroke-width:1.0;"/><polygon fill="#181818" points="563.48,646.7469,560.164,637.473,560.0295,643.1283,554.3743,642.9938,563.48,646.7469" style="stroke:#181818;stroke-width:1.0;"/></g><!--link StartController to MainApplication--><g id="link_StartController_MainApplication"><path codeLine="81" d="M679,432.7569 C679,488.3269 679,569.2369 679,640.6269 " fill="none" id="StartController-to-MainApplication" style="stroke:#181818;stroke-width:1.0;"/><polygon fill="#181818" points="679,646.6269,683,637.6269,679,641.6269,675,637.6269,679,646.6269" style="stroke:#181818;stroke-width:1.0;"/></g><!--link GameController to MainApplication--><g id="link_GameController_MainApplication"><path codeLine="82" d="M929.44,587.4869 C901.36,607.7169 878.4487,624.2204 852.1787,643.1404 " fill="none" id="GameController-to-MainApplication" style="stroke:#181818;stroke-width:1.0;"/><polygon fill="#181818" points="847.31,646.6469,856.9507,644.6329,851.3673,643.7248,852.2754,638.1413,847.31,646.6469" style="stroke:#181818;stroke-width:1.0;"/></g><!--SRC=[fLRRRk8m47tdAwm-1RNq2n2hGakBjZIeqAsqgnKooHGi73jhcqkxwh_ls0cf4q9fkpmOstFcs3wU6SSmmu5SFmn838OohXkDHagZ9Pq3EKde2ynf0kUsEI5_6mH_4QTQaskSkGUzucP81OBL84bvZh2_5hbbshH30IDEdq6zuJj4kNzTO4_9MhAOQBg6e4dCGicD9eFmQXj1QfWK7l0mAOtZeCQGB_PbsZcO2yuFR-kruOaof4nu6fmIRQXXKNQy18t1s2Wcvhz-4whckbdFS96cd4NKBb4YgzY2Pfs0sRw3cPGSg21QyZN4PuG9GyGgcO4AduPo3Vg881dVXfbeCOv0GBvnyhHD-7-udf5ya3gXxr3e3x4PgWposA3KjYsSwbnoqQjIuaqE1Df412NfSdXzGADJFYpvvAT0wwWuI0dmKmg8Bwc12Kl0udeAS1Hxe1Rn3bIQhIZasSgqKSRfHr7rqArMf_vaZTT3UNuUIM6Kv1nKEUKdTCRX1uDDhm2K4ZuNqeRQtSEmUtK_3VlJ-_1nF9s4q_5D-EXX2wxwh3CxSzMb9_ag4NLEkz3gr2jtr7iW3A0sdNAQV8QXc-LS9q-whsmzNYbQYkPF-FhHuEKE4ymmojdBqTfQZPqa6-yNgR5DnmD1C86jwJFWiNSDRknXkYjZaDzbjJr9Ddvlur_PfML-Fr872KR_s4Y5V-tY_fatw_dazf6IAIZpV31CxB8ea769RNo6QyNY4HLO3h1JArc9iwhQBPq1zrHruwfe2ofY3j_XUOJldWwmSxK6JCXbtcdMEmpbIaCFDLq6hfivGQr7xRsqCjkCYVZEFqG9aYT85q6smcK1cuycihU0Q3bY4C50Xs8aDNEld2qd285jzeXX_6QTI7AVszsbhHWvRJ7kI-L8Fq_fJfInkGkjrcxShRtD7F5dHHK4LJwi2bn6IpApxHuvYDY6I-MrteDbTpHsnY2SQL1hLnyfNq7x6y7mGIBzLdza6L9K9Y9vN9aHi74pUslQMnxIj7Jcq5KCojkNJ45a- -xxg1ZrbKoo83egQqANO0Day7IBBmyF2WuIxtfxFWhc-9a6QXVKDquM5TG0YzAoRzGBkRb0DnEuzjora-SK2DtrYg-K1T0ObCtFOie-ZhXsDdVetZvKfUgUK_jSLrmTjbfn3-4gDQyEzleF]--></g></svg>