<svg xmlns="http://www.w3.org/2000/svg" xmlns:xlink="http://www.w3.org/1999/xlink" contentStyleType="text/css" height="1149px" preserveAspectRatio="none" style="width:751px;height:1149px;background:#FFFFFF;" version="1.1" viewBox="0 0 751 1149" width="751px" zoomAndPan="magnify"><defs/><g><text fill="#000000" font-family="sans-serif" font-size="14" font-weight="bold" lengthAdjust="spacing" textLength="104" x="316.5" y="22.9951">Model details</text><!--cluster mazegame--><g id="cluster_mazegame"><path d="M8.5,43.2969 L94.5,43.2969 A3.75,3.75 0 0 1 97,45.7969 L104,65.5938 L741.5,65.5938 A2.5,2.5 0 0 1 744,68.0938 L744,1139.8569 A2.5,2.5 0 0 1 741.5,1142.3569 L8.5,1142.3569 A2.5,2.5 0 0 1 6,1139.8569 L6,45.7969 A2.5,2.5 0 0 1 8.5,43.2969 " fill="none" style="stroke:#000000;stroke-width:1.5;"/><line style="stroke:#000000;stroke-width:1.5;" x1="6" x2="104" y1="65.5938" y2="65.5938"/><text fill="#000000" font-family="sans-serif" font-size="14" font-weight="bold" lengthAdjust="spacing" textLength="85" x="10" y="58.292">mazegame</text></g><!--cluster model--><g id="cluster_model"><path d="M32.5,86.2969 L81.5,86.2969 A3.75,3.75 0 0 1 84,88.7969 L91,108.5938 L717.5,108.5938 A2.5,2.5 0 0 1 720,111.0938 L720,1115.8569 A2.5,2.5 0 0 1 717.5,1118.3569 L32.5,1118.3569 A2.5,2.5 0 0 1 30,1115.8569 L30,88.7969 A2.5,2.5 0 0 1 32.5,86.2969 " fill="none" style="stroke:#000000;stroke-width:1.5;"/><line style="stroke:#000000;stroke-width:1.5;" x1="30" x2="91" y1="108.5938" y2="108.5938"/><text fill="#000000" font-family="sans-serif" font-size="14" font-weight="bold" lengthAdjust="spacing" textLength="48" x="34" y="101.292">model</text></g><!--class GameState--><g id="elem_GameState"><rect codeLine="4" fill="#F1F1F1" height="520.6094" id="GameState" rx="2.5" ry="2.5" style="stroke:#181818;stroke-width:0.5;" width="658" x="46" y="121.2969"/><ellipse cx="332.25" cy="137.2969" fill="#ADD1B2" rx="11" ry="11" style="stroke:#181818;stroke-width:1.0;"/><path d="M335.2188,142.9375 Q334.6406,143.2344 334,143.375 Q333.3594,143.5313 332.6563,143.5313 Q330.1563,143.5313 328.8281,141.8906 Q327.5156,140.2344 327.5156,137.1094 Q327.5156,133.9844 328.8281,132.3281 Q330.1563,130.6719 332.6563,130.6719 Q333.3594,130.6719 334,130.8281 Q334.6563,130.9844 335.2188,131.2813 L335.2188,134 Q334.5938,133.4219 334,133.1563 Q333.4063,132.875 332.7813,132.875 Q331.4375,132.875 330.75,133.9531 Q330.0625,135.0156 330.0625,137.1094 Q330.0625,139.2031 330.75,140.2813 Q331.4375,141.3438 332.7813,141.3438 Q333.4063,141.3438 334,141.0781 Q334.5938,140.7969 335.2188,140.2188 L335.2188,142.9375 Z " fill="#000000"/><text fill="#000000" font-family="sans-serif" font-size="14" lengthAdjust="spacing" textLength="77" x="352.75" y="142.1436">GameState</text><line style="stroke:#181818;stroke-width:0.5;" x1="47" x2="703" y1="153.2969" y2="153.2969"/><ellipse cx="57" cy="166.9453" fill="none" rx="3" ry="3" style="stroke:#038048;stroke-width:1.0;"/><text fill="#000000" font-family="sans-serif" font-size="14" lengthAdjust="spacing" text-decoration="underline" textLength="105" x="66" y="170.292">final int PLAYER</text><ellipse cx="57" cy="183.2422" fill="none" rx="3" ry="3" style="stroke:#038048;stroke-width:1.0;"/><text fill="#000000" font-family="sans-serif" font-size="14" lengthAdjust="spacing" text-decoration="underline" textLength="122" x="66" y="186.5889">final int MONSTER</text><ellipse cx="57" cy="199.5391" fill="none" rx="3" ry="3" style="stroke:#038048;stroke-width:1.0;"/><text fill="#000000" font-family="sans-serif" font-size="14" lengthAdjust="spacing" text-decoration="underline" textLength="82" x="66" y="202.8857">final int END</text><rect fill="none" height="6" style="stroke:#C82930;stroke-width:1.0;" width="6" x="54" y="212.8359"/><text fill="#000000" font-family="sans-serif" font-size="14" lengthAdjust="spacing" textLength="119" x="66" y="219.1826">final int mapIndex</text><rect fill="none" height="6" style="stroke:#C82930;stroke-width:1.0;" width="6" x="54" y="229.1328"/><text fill="#000000" font-family="sans-serif" font-size="14" lengthAdjust="spacing" textLength="110" x="66" y="235.4795">final Maps maps</text><rect fill="none" height="6" style="stroke:#C82930;stroke-width:1.0;" width="6" x="54" y="245.4297"/><text fill="#000000" font-family="sans-serif" font-size="14" lengthAdjust="spacing" textLength="356" x="66" y="251.7764">final ReadOnlyObjectWrapper&lt;Position&gt;[] positions</text><rect fill="none" height="6" style="stroke:#C82930;stroke-width:1.0;" width="6" x="54" y="261.7266"/><text fill="#000000" font-family="sans-serif" font-size="14" lengthAdjust="spacing" textLength="261" x="66" y="268.0732">final ReadOnlyBooleanWrapper solved</text><line style="stroke:#181818;stroke-width:0.5;" x1="47" x2="703" y1="275.375" y2="275.375"/><ellipse cx="57" cy="289.0234" fill="#84BE84" rx="3" ry="3" style="stroke:#038048;stroke-width:1.0;"/><text fill="#000000" font-family="sans-serif" font-size="14" lengthAdjust="spacing" textLength="262" x="66" y="292.3701">GameState(Maps maps, int mapIndex)</text><rect fill="#F24D5C" height="6" style="stroke:#C82930;stroke-width:1.0;" width="6" x="54" y="302.3203"/><text fill="#000000" font-family="sans-serif" font-size="14" lengthAdjust="spacing" textLength="62" x="66" y="308.667">void init()</text><ellipse cx="57" cy="321.6172" fill="#84BE84" rx="3" ry="3" style="stroke:#038048;stroke-width:1.0;"/><text fill="#000000" font-family="sans-serif" font-size="14" lengthAdjust="spacing" textLength="179" x="66" y="324.9639">MapData getCurrentMap()</text><ellipse cx="57" cy="337.9141" fill="#84BE84" rx="3" ry="3" style="stroke:#038048;stroke-width:1.0;"/><text fill="#000000" font-family="sans-serif" font-size="14" lengthAdjust="spacing" textLength="205" x="66" y="341.2607">Position getPosition(int index)</text><ellipse cx="57" cy="354.2109" fill="#84BE84" rx="3" ry="3" style="stroke:#038048;stroke-width:1.0;"/><text fill="#000000" font-family="sans-serif" font-size="14" lengthAdjust="spacing" textLength="433" x="66" y="357.5576">ReadOnlyObjectProperty&lt;Position&gt; positionProperty(int index)</text><ellipse cx="57" cy="370.5078" fill="#84BE84" rx="3" ry="3" style="stroke:#038048;stroke-width:1.0;"/><text fill="#000000" font-family="sans-serif" font-size="14" lengthAdjust="spacing" textLength="298" x="66" y="373.8545">ReadOnlyBooleanProperty solvedProperty()</text><rect fill="#F24D5C" height="6" style="stroke:#C82930;stroke-width:1.0;" width="6" x="54" y="383.8047"/><text fill="#000000" font-family="sans-serif" font-size="14" lengthAdjust="spacing" textLength="476" x="66" y="390.1514">boolean canMoveUp(MapData currentMap, Block block, int character)</text><rect fill="#F24D5C" height="6" style="stroke:#C82930;stroke-width:1.0;" width="6" x="54" y="400.1016"/><text fill="#000000" font-family="sans-serif" font-size="14" lengthAdjust="spacing" textLength="493" x="66" y="406.4482">boolean canMoveRight(MapData currentMap, Block block, int character)</text><rect fill="#F24D5C" height="6" style="stroke:#C82930;stroke-width:1.0;" width="6" x="54" y="416.3984"/><text fill="#000000" font-family="sans-serif" font-size="14" lengthAdjust="spacing" textLength="497" x="66" y="422.7451">boolean canMoveDown(MapData currentMap, Block block, int character)</text><rect fill="#F24D5C" height="6" style="stroke:#C82930;stroke-width:1.0;" width="6" x="54" y="432.6953"/><text fill="#000000" font-family="sans-serif" font-size="14" lengthAdjust="spacing" textLength="482" x="66" y="439.042">boolean canMoveLeft(MapData currentMap, Block block, int character)</text><rect fill="#F24D5C" height="6" style="stroke:#C82930;stroke-width:1.0;" width="6" x="54" y="448.9922"/><text fill="#000000" font-family="sans-serif" font-size="14" lengthAdjust="spacing" textLength="337" x="66" y="455.3389">boolean isLegalMoveMonster(Direction direction)</text><rect fill="#F24D5C" height="6" style="stroke:#C82930;stroke-width:1.0;" width="6" x="54" y="465.2891"/><text fill="#000000" font-family="sans-serif" font-size="14" lengthAdjust="spacing" textLength="632" x="66" y="471.6357">int moveInDirection(int distance, Direction positiveDir, Direction negativeDir, int stepsTaken)</text><rect fill="#F24D5C" height="6" style="stroke:#C82930;stroke-width:1.0;" width="6" x="54" y="481.5859"/><text fill="#000000" font-family="sans-serif" font-size="14" lengthAdjust="spacing" textLength="443" x="66" y="487.9326">void moveMonster(Position monsterPosition, Direction direction)</text><rect fill="#F24D5C" height="6" style="stroke:#C82930;stroke-width:1.0;" width="6" x="54" y="497.8828"/><text fill="#000000" font-family="sans-serif" font-size="14" lengthAdjust="spacing" textLength="171" x="66" y="504.2295">void tryToMoveMonster()</text><ellipse cx="57" cy="517.1797" fill="#84BE84" rx="3" ry="3" style="stroke:#038048;stroke-width:1.0;"/><text fill="#000000" font-family="sans-serif" font-size="14" lengthAdjust="spacing" textLength="227" x="66" y="520.5264">Set&lt;Direction&gt; getLegalMoves()</text><ellipse cx="57" cy="533.4766" fill="#84BE84" rx="3" ry="3" style="stroke:#038048;stroke-width:1.0;"/><text fill="#000000" font-family="sans-serif" font-size="14" lengthAdjust="spacing" textLength="280" x="66" y="536.8232">boolean isLegalMove(Direction direction)</text><ellipse cx="57" cy="549.7734" fill="#84BE84" rx="3" ry="3" style="stroke:#038048;stroke-width:1.0;"/><text fill="#000000" font-family="sans-serif" font-size="14" lengthAdjust="spacing" textLength="127" x="66" y="553.1201">boolean isSolved()</text><ellipse cx="57" cy="566.0703" fill="#84BE84" rx="3" ry="3" style="stroke:#038048;stroke-width:1.0;"/><text fill="#000000" font-family="sans-serif" font-size="14" lengthAdjust="spacing" textLength="243" x="66" y="569.417">void makeMove(Direction direction)</text><ellipse cx="57" cy="582.3672" fill="#84BE84" rx="3" ry="3" style="stroke:#038048;stroke-width:1.0;"/><text fill="#000000" font-family="sans-serif" font-size="14" lengthAdjust="spacing" textLength="129" x="66" y="585.7139">GameState clone()</text><ellipse cx="57" cy="598.6641" fill="#84BE84" rx="3" ry="3" style="stroke:#038048;stroke-width:1.0;"/><text fill="#000000" font-family="sans-serif" font-size="14" lengthAdjust="spacing" textLength="174" x="66" y="602.0107">boolean equals(Object o)</text><ellipse cx="57" cy="614.9609" fill="#84BE84" rx="3" ry="3" style="stroke:#038048;stroke-width:1.0;"/><text fill="#000000" font-family="sans-serif" font-size="14" lengthAdjust="spacing" textLength="102" x="66" y="618.3076">int hashCode()</text><ellipse cx="57" cy="631.2578" fill="#84BE84" rx="3" ry="3" style="stroke:#038048;stroke-width:1.0;"/><text fill="#000000" font-family="sans-serif" font-size="14" lengthAdjust="spacing" textLength="108" x="66" y="634.6045">String toString()</text></g><!--class Direction--><g id="elem_Direction"><rect codeLine="37" fill="#F1F1F1" height="162.0781" id="Direction" rx="2.5" ry="2.5" style="stroke:#181818;stroke-width:0.5;" width="359" x="195.5" y="940.2769"/><ellipse cx="339.75" cy="956.2769" fill="#ADD1B2" rx="11" ry="11" style="stroke:#181818;stroke-width:1.0;"/><path d="M342.7188,961.9175 Q342.1406,962.2144 341.5,962.355 Q340.8594,962.5112 340.1563,962.5112 Q337.6563,962.5112 336.3281,960.8706 Q335.0156,959.2144 335.0156,956.0894 Q335.0156,952.9644 336.3281,951.3081 Q337.6563,949.6519 340.1563,949.6519 Q340.8594,949.6519 341.5,949.8081 Q342.1563,949.9644 342.7188,950.2612 L342.7188,952.98 Q342.0938,952.4019 341.5,952.1362 Q340.9063,951.855 340.2813,951.855 Q338.9375,951.855 338.25,952.9331 Q337.5625,953.9956 337.5625,956.0894 Q337.5625,958.1831 338.25,959.2612 Q338.9375,960.3237 340.2813,960.3237 Q340.9063,960.3237 341.5,960.0581 Q342.0938,959.7769 342.7188,959.1987 L342.7188,961.9175 Z " fill="#000000"/><text fill="#000000" font-family="sans-serif" font-size="14" lengthAdjust="spacing" textLength="62" x="360.25" y="961.1236">Direction</text><line style="stroke:#181818;stroke-width:0.5;" x1="196.5" x2="553.5" y1="972.2769" y2="972.2769"/><ellipse cx="206.5" cy="985.9253" fill="none" rx="3" ry="3" style="stroke:#038048;stroke-width:1.0;"/><text fill="#000000" font-family="sans-serif" font-size="14" lengthAdjust="spacing" text-decoration="underline" textLength="85" x="215.5" y="989.272">Direction UP</text><ellipse cx="206.5" cy="1002.2222" fill="none" rx="3" ry="3" style="stroke:#038048;stroke-width:1.0;"/><text fill="#000000" font-family="sans-serif" font-size="14" lengthAdjust="spacing" text-decoration="underline" textLength="109" x="215.5" y="1005.5689">Direction RIGHT</text><ellipse cx="206.5" cy="1018.5191" fill="none" rx="3" ry="3" style="stroke:#038048;stroke-width:1.0;"/><text fill="#000000" font-family="sans-serif" font-size="14" lengthAdjust="spacing" text-decoration="underline" textLength="111" x="215.5" y="1021.8657">Direction DOWN</text><ellipse cx="206.5" cy="1034.8159" fill="none" rx="3" ry="3" style="stroke:#038048;stroke-width:1.0;"/><text fill="#000000" font-family="sans-serif" font-size="14" lengthAdjust="spacing" text-decoration="underline" textLength="99" x="215.5" y="1038.1626">Direction LEFT</text><ellipse cx="206.5" cy="1051.1128" fill="none" rx="3" ry="3" style="stroke:#038048;stroke-width:1.0;"/><text fill="#000000" font-family="sans-serif" font-size="14" lengthAdjust="spacing" textLength="100" x="215.5" y="1054.4595">int rowChange</text><ellipse cx="206.5" cy="1067.4097" fill="none" rx="3" ry="3" style="stroke:#038048;stroke-width:1.0;"/><text fill="#000000" font-family="sans-serif" font-size="14" lengthAdjust="spacing" textLength="95" x="215.5" y="1070.7564">int colChange</text><line style="stroke:#181818;stroke-width:0.5;" x1="196.5" x2="553.5" y1="1078.0581" y2="1078.0581"/><ellipse cx="206.5" cy="1091.7066" fill="#84BE84" rx="3" ry="3" style="stroke:#038048;stroke-width:1.0;"/><text fill="#000000" font-family="sans-serif" font-size="14" lengthAdjust="spacing" textLength="333" x="215.5" y="1095.0532">static Direction of(int rowChange, int colChange)</text></g><!--class Position--><g id="elem_Position"><rect codeLine="47" fill="#F1F1F1" height="178.375" id="Position" rx="2.5" ry="2.5" style="stroke:#181818;stroke-width:0.5;" width="259" x="410.5" y="701.9069"/><ellipse cx="508.25" cy="717.9069" fill="#ADD1B2" rx="11" ry="11" style="stroke:#181818;stroke-width:1.0;"/><path d="M511.2188,723.5475 Q510.6406,723.8444 510,723.985 Q509.3594,724.1412 508.6563,724.1412 Q506.1563,724.1412 504.8281,722.5006 Q503.5156,720.8444 503.5156,717.7194 Q503.5156,714.5944 504.8281,712.9381 Q506.1563,711.2819 508.6563,711.2819 Q509.3594,711.2819 510,711.4381 Q510.6563,711.5944 511.2188,711.8912 L511.2188,714.61 Q510.5938,714.0319 510,713.7662 Q509.4063,713.485 508.7813,713.485 Q507.4375,713.485 506.75,714.5631 Q506.0625,715.6256 506.0625,717.7194 Q506.0625,719.8131 506.75,720.8912 Q507.4375,721.9537 508.7813,721.9537 Q509.4063,721.9537 510,721.6881 Q510.5938,721.4069 511.2188,720.8287 L511.2188,723.5475 Z " fill="#000000"/><text fill="#000000" font-family="sans-serif" font-size="14" lengthAdjust="spacing" textLength="55" x="528.75" y="722.7536">Position</text><line style="stroke:#181818;stroke-width:0.5;" x1="411.5" x2="668.5" y1="733.9069" y2="733.9069"/><ellipse cx="421.5" cy="747.5553" fill="none" rx="3" ry="3" style="stroke:#038048;stroke-width:1.0;"/><text fill="#000000" font-family="sans-serif" font-size="14" lengthAdjust="spacing" textLength="46" x="430.5" y="750.902">int row</text><ellipse cx="421.5" cy="763.8522" fill="none" rx="3" ry="3" style="stroke:#038048;stroke-width:1.0;"/><text fill="#000000" font-family="sans-serif" font-size="14" lengthAdjust="spacing" textLength="41" x="430.5" y="767.1989">int col</text><line style="stroke:#181818;stroke-width:0.5;" x1="411.5" x2="668.5" y1="774.5006" y2="774.5006"/><ellipse cx="421.5" cy="788.1491" fill="#84BE84" rx="3" ry="3" style="stroke:#038048;stroke-width:1.0;"/><text fill="#000000" font-family="sans-serif" font-size="14" lengthAdjust="spacing" textLength="233" x="430.5" y="791.4957">Position move(Direction direction)</text><ellipse cx="421.5" cy="804.4459" fill="#84BE84" rx="3" ry="3" style="stroke:#038048;stroke-width:1.0;"/><text fill="#000000" font-family="sans-serif" font-size="14" lengthAdjust="spacing" textLength="126" x="430.5" y="807.7926">Position moveUp()</text><ellipse cx="421.5" cy="820.7428" fill="#84BE84" rx="3" ry="3" style="stroke:#038048;stroke-width:1.0;"/><text fill="#000000" font-family="sans-serif" font-size="14" lengthAdjust="spacing" textLength="143" x="430.5" y="824.0895">Position moveRight()</text><ellipse cx="421.5" cy="837.0397" fill="#84BE84" rx="3" ry="3" style="stroke:#038048;stroke-width:1.0;"/><text fill="#000000" font-family="sans-serif" font-size="14" lengthAdjust="spacing" textLength="147" x="430.5" y="840.3864">Position moveDown()</text><ellipse cx="421.5" cy="853.3366" fill="#84BE84" rx="3" ry="3" style="stroke:#038048;stroke-width:1.0;"/><text fill="#000000" font-family="sans-serif" font-size="14" lengthAdjust="spacing" textLength="132" x="430.5" y="856.6832">Position moveLeft()</text><ellipse cx="421.5" cy="869.6334" fill="#84BE84" rx="3" ry="3" style="stroke:#038048;stroke-width:1.0;"/><text fill="#000000" font-family="sans-serif" font-size="14" lengthAdjust="spacing" textLength="108" x="430.5" y="872.9801">String toString()</text></g><!--link GameState to Position--><g id="link_GameState_Position"><path codeLine="58" d="M480.2,642.3969 C488.69,663.3669 494.5765,677.9162 501.9765,696.1762 " fill="none" id="GameState-to-Position" style="stroke:#181818;stroke-width:1.0;"/><polygon fill="#181818" points="504.23,701.7369,504.5569,691.8934,502.3521,697.1029,497.1426,694.8981,504.23,701.7369" style="stroke:#181818;stroke-width:1.0;"/></g><!--link GameState to Direction--><g id="link_GameState_Direction"><path codeLine="59" d="M362.08,641.9869 C361.34,748.8869 362.3555,859.0327 365.6655,934.0427 " fill="none" id="GameState-to-Direction" style="stroke:#181818;stroke-width:1.0;"/><polygon fill="#181818" points="365.93,940.0369,369.5294,930.8693,365.7096,935.0417,361.5371,931.222,365.93,940.0369" style="stroke:#181818;stroke-width:1.0;"/></g><!--link Direction to GameState--><g id="link_Direction_GameState"><path codeLine="60" d="M384.07,940.0369 C387.38,865.0269 388.7015,754.8867 387.9615,647.9867 " fill="none" id="Direction-to-GameState" style="stroke:#181818;stroke-width:1.0;"/><polygon fill="#181818" points="387.92,641.9869,383.9824,651.0143,387.9546,646.9868,391.9822,650.959,387.92,641.9869" style="stroke:#181818;stroke-width:1.0;"/></g><!--link Position to Direction--><g id="link_Position_Direction"><path codeLine="61" d="M475.97,880.6569 C461.84,900.2069 450.4664,915.9453 436.5864,935.1353 " fill="none" id="Position-to-Direction" style="stroke:#181818;stroke-width:1.0;"/><polygon fill="#181818" points="433.07,939.9969,441.5856,935.0487,436.0003,935.9455,435.1035,930.3602,433.07,939.9969" style="stroke:#181818;stroke-width:1.0;"/></g><!--SRC=[hLNRZjem47tdAwnzocgXNx12wWBT8d4J5wsgLH-CCu2BOwUsbor5_7ljN1o7X9G7U41XpfdZEUF9eAbcWCOY18P2q9WorMh5cEpn5j13XF_25aVm9RA41tHg8VCX32k5NaryeR66B6e_J-YaJ8YICzfGZXcYNAFPwEkFmRoPCvvE5il_aGQJlYDql7Y4uo4FuKy57EDOMLHLa3dWSChPSRh-1KI_IHp789zdGb5D1U- -_qHnzdmzzqK81fXdoKW9Te3GiJqhhbE1AwXTAlpHE-CWQ6X0geD7Jy8azh76Q0kwzo4bS6qY9KPUkwNapu4zX9PFUBhmFfF2LA-FXNbdFOUQPR8svEIi3oxNzxPEgOXWFXO7MCL1xeiuKstqmWJPexNzJjj4TbXYea4sQCtfTgVl9zSNd_n-QYFOtACsgaRcRMHMSMm6qx22FfNc3ksrX_cJdvaCcQ4FkICcbnbIytPn0crK2AItRgnJwOUvETA5RQuvDrPBl0TU6Tl8gypDOvG6yj- -TctDYPAMnwNmZVgJjm3zx4IwTk1TNrI9MDEuvexvAOjaZajwgKbZ_HQbOZyI9ZZK5WQ_Fp1JGVec8k5JRAjtMErwPlEMtMj9-HPfaJvasBdbhUQYijhLNC2hMJC-7xv-NpPJ-jEtIJDZDFYsl30cnMTlX_aMBk94i4ey5VJqn2OeQRJBgJNzSBDugjPHhQ1kgKOtN7Y9lBgodIEtgwx2oUwvYYQxv9PvS7z2nI1sEbqdLWCvVmbMkBMOOoQOgwYSTlu7]--></g></svg>